<svg width="92" height="92" viewBox="0 0 92 92" fill="none" xmlns="http://www.w3.org/2000/svg">
<g clip-path="url(#clip0)">
<path d="M28.7501 58.0276C24.2851 58.0276 20.6667 61.6446 20.6667 66.11C20.6667 70.5757 24.2851 74.1927 28.7501 74.1927C33.2166 74.1927 36.8341 70.5757 36.8341 66.11C36.8341 61.6446 33.2166 58.0276 28.7501 58.0276ZM28.7501 69.624C26.8091 69.624 25.2364 68.051 25.2364 66.11C25.2364 64.1682 26.8091 62.5961 28.7501 62.5961C30.6912 62.5961 32.2651 64.1682 32.2651 66.11C32.2651 68.051 30.6912 69.624 28.7501 69.624Z" fill="white"/>
<path d="M71.3749 58.0276C66.91 58.0276 63.2918 61.6446 63.2918 66.11C63.2918 70.5757 66.91 74.1927 71.3749 74.1927C75.8417 74.1927 79.459 70.5757 79.459 66.11C79.459 61.6446 75.8417 58.0276 71.3749 58.0276ZM71.3749 69.624C69.434 69.624 67.8614 68.051 67.8614 66.11C67.8614 64.1682 69.434 62.5961 71.3749 62.5961C73.3163 62.5961 74.8902 64.1682 74.8902 66.11C74.8902 68.051 73.3163 69.624 71.3749 69.624Z" fill="white"/>
<path d="M37.8439 33.1917C37.8439 34.3243 36.9171 35.2509 35.7847 35.2509H7.36821C6.23558 35.2509 5.3092 34.3243 5.3092 33.1917V31.9562C5.3092 30.8238 6.2358 29.8972 7.36821 29.8972H35.7847C36.9173 29.8972 37.8439 30.8238 37.8439 31.9562V33.1917Z" fill="white"/>
<path d="M87.2144 45.2479C84.2505 44.4773 82.5545 43.9929 81.3906 41.7453L77.499 33.8659C76.3347 31.6183 73.3109 29.7791 70.7803 29.7791H65.4575C65.4575 29.7791 64.7415 29.794 64.7415 29.0735C64.7415 27.4214 64.7415 22.4652 64.7415 22.4652C64.7415 19.9034 63.2918 17.8073 60.208 17.8073H16.8278C12.4128 17.8073 10.3167 19.9036 10.3167 22.4652V26.6065C10.3167 26.6065 10.3167 27.8382 11.5089 27.8382C17.5778 27.8382 35.7847 27.8382 35.7847 27.8382C38.0556 27.8382 39.9032 29.6855 39.9032 31.9564V33.1919C39.9032 35.4629 38.0556 37.3102 35.7847 37.3102H11.5089C11.5089 37.3102 10.3167 37.2111 10.3167 38.498C10.3167 39.1371 10.3167 39.5662 10.3167 39.9222C10.3167 41.0548 11.8691 41.0541 11.8691 41.0541H28.2104C30.4814 41.0541 32.3289 42.9016 32.3289 45.1723V46.4079C32.3289 48.6788 30.4814 50.5261 28.2104 50.5261H12.127C12.127 50.5261 10.3167 50.4926 10.3167 51.934C10.3167 54.4358 10.3167 61.9409 10.3167 61.9409C10.3167 64.5024 12.4128 66.5987 14.9746 66.5987C14.9746 66.5987 16.9042 66.5987 17.5475 66.5987C18.131 66.5987 18.2169 66.2737 18.2169 66.1105C18.2169 60.3028 22.9424 55.5784 28.7503 55.5784C34.5587 55.5784 39.2839 60.3032 39.2839 66.1105C39.2839 66.2744 39.2373 66.5987 39.6836 66.5987C44.7836 66.5987 60.4469 66.5987 60.4469 66.5987C60.8585 66.5987 60.8417 66.2518 60.8417 66.1105C60.8417 60.3028 65.567 55.5784 71.3751 55.5784C77.1833 55.5784 81.9085 60.3032 81.9085 66.1105C81.9085 66.2744 81.9045 66.5987 82.1621 66.5987C84.5006 66.5987 87.3969 66.5987 87.3969 66.5987C89.9288 66.5987 91.9998 64.5277 91.9998 61.9961V53.2516C92 45.8875 89.6748 45.8875 87.2144 45.2479ZM78.4557 44.8383C78.4557 44.8383 68.6811 44.8383 65.3544 44.8383C64.8132 44.8383 64.7413 44.3113 64.7413 44.3113V33.3978C64.7413 33.3978 64.7107 32.9787 65.4057 32.9787C66.3405 32.9787 69.144 32.9787 69.144 32.9787C71.3964 32.9787 74.0868 34.6152 75.1225 36.6152L78.5855 43.6263C78.7314 43.9085 78.8872 44.1591 79.0541 44.3837C79.1771 44.5484 78.9709 44.8383 78.4557 44.8383Z" fill="white"/>
<path d="M30.2694 46.4079C30.2694 47.5405 29.3429 48.4671 28.2104 48.4671H2.059C0.926371 48.4671 0 47.5405 0 46.4079V45.1723C0 44.0399 0.926597 43.1133 2.059 43.1133H28.2104C29.3431 43.1133 30.2694 44.0399 30.2694 45.1723V46.4079Z" fill="white"/>
</g>
<defs>
<clipPath id="clip0">
<rect width="92" height="92" fill="white"/>
</clipPath>
</defs>
</svg>
