<svg width="72" height="68" viewBox="0 0 72 68" fill="none" xmlns="http://www.w3.org/2000/svg">
<path d="M53.7237 31.8362C54.5196 32.5142 55.6987 32.4847 56.4504 31.733C57.1726 31.0108 57.2315 29.8907 56.6272 29.1095L56.5978 29.08C56.583 29.0505 56.5535 29.0211 56.5388 29.0063L51.5865 23.1107C51.3801 22.8602 51.2475 22.5507 51.2328 22.2117L50.5105 11.1132C50.4221 10.0815 49.5673 9.28555 48.506 9.28555C47.4743 9.28555 46.6342 10.052 46.5163 11.0542V11.069C46.5163 11.1132 46.5163 11.1574 46.5015 11.2016L45.7056 23.3908C45.6909 23.4645 45.6909 23.5529 45.6909 23.6266V23.6561C45.6909 23.6708 45.6909 23.6856 45.6909 23.7003C45.6909 23.7298 45.6909 23.7445 45.6909 23.7592C45.6762 24.4962 45.9562 25.2331 46.5163 25.7932C46.6342 25.9111 46.7521 26.0143 46.8848 26.1028L53.7237 31.8362Z" fill="white"/>
<path d="M48.6829 0C38.4541 0 29.7581 6.61781 26.6187 15.7855C28.6526 16.0213 30.6277 16.4635 32.529 17.1267C35.0199 10.6268 41.3282 5.99877 48.6829 5.99877C58.219 5.99877 65.9865 13.7662 65.9865 23.3024C65.9865 31.9394 59.634 39.1026 51.3507 40.3996C51.4833 41.5198 51.557 42.6694 51.557 43.819C51.557 44.7034 51.5128 45.573 51.4391 46.4426C62.9945 45.0718 72 35.2262 72 23.3024C71.9853 10.45 61.5353 0 48.6829 0Z" fill="white"/>
<path d="M44.6739 40.3849L41.6672 40.3701C41.1955 37.9087 40.2375 35.521 38.7783 33.3691L40.9155 31.2467C41.6819 30.4803 41.6966 29.2274 40.9302 28.461L38.7783 26.3091C38.0119 25.5427 36.7591 25.528 35.9926 26.2944L33.8555 28.4168C31.7036 26.9429 29.3306 25.9701 26.8692 25.4837L26.8839 22.477C26.8839 21.3863 26.0143 20.502 24.9237 20.502L21.8874 20.4872C20.7967 20.4872 19.9124 21.3568 19.9124 22.4475L19.8977 25.4395C17.4215 25.8964 15.019 26.8545 12.8524 28.3136L10.7595 26.2207C9.99304 25.4543 8.74023 25.4395 7.9738 26.2207L5.82191 28.3726C5.05548 29.139 5.04074 30.3918 5.80717 31.1582L7.87063 33.2364C6.38199 35.3883 5.39447 37.8055 4.90809 40.2817L1.98977 40.2669C0.899079 40.2669 0.014739 41.1366 0.014739 42.2272L0 45.2635C0 46.3542 0.869601 47.2385 1.96029 47.2385L4.86387 47.2532C5.32078 49.7441 6.29355 52.1761 7.76745 54.3427L5.71873 56.3767C4.9523 57.1431 4.93757 58.3959 5.70399 59.1623L7.85589 61.3142C8.62232 62.0807 9.87513 62.0954 10.6416 61.3142L12.7198 59.3097C14.8864 60.7984 17.3036 61.7859 19.7945 62.2575L19.7797 65.1611C19.7797 66.2518 20.6493 67.1361 21.74 67.1361L24.7763 67.1509C25.8669 67.1509 26.7513 66.2813 26.7513 65.1906L26.766 62.2723C29.2569 61.8006 31.6594 60.8278 33.826 59.3392L35.8895 61.4174C36.6559 62.1838 37.9087 62.1986 38.6751 61.4321L40.827 59.2803C41.5935 58.5138 41.6082 57.261 40.8418 56.4946L38.7488 54.4016C40.2227 52.2498 41.1955 49.8473 41.6524 47.3711L44.6444 47.3859C45.7351 47.3859 46.6195 46.5163 46.6195 45.4256L46.6342 42.3894C46.6489 41.2692 45.7646 40.3849 44.6739 40.3849ZM30.495 51.0117C26.5155 54.9617 20.0893 54.947 16.1392 50.9675C12.1892 46.9879 12.2039 40.5617 16.1834 36.6117C20.163 32.6616 26.5892 32.6764 30.5392 36.6559C34.4893 40.6354 34.4598 47.0616 30.495 51.0117Z" fill="white"/>
</svg>
