<svg width="60" height="70" viewBox="0 0 60 70" fill="none" xmlns="http://www.w3.org/2000/svg">
<path d="M59.3825 18.0179C59.2988 16.1764 59.2988 14.4185 59.2988 12.6607C59.2988 11.2377 58.2106 10.1495 56.7876 10.1495C46.3242 10.1495 38.372 7.13602 31.7592 0.690583C30.7547 -0.230194 29.2479 -0.230194 28.2435 0.690583C21.6306 7.13602 13.6784 10.1495 3.21505 10.1495C1.79204 10.1495 0.703844 11.2377 0.703844 12.6607C0.703844 14.4185 0.703844 16.1764 0.620137 18.0179C0.285309 35.5964 -0.216935 59.704 29.1642 69.8326L30.0013 70L30.8384 69.8326C60.1358 59.704 59.7173 35.6801 59.3825 18.0179ZM27.9923 42.3767C27.4901 42.7952 26.9041 43.0463 26.2345 43.0463H26.1508C25.4811 43.0463 24.8115 42.7115 24.3929 42.2093L16.6082 33.5874L20.375 30.2392L26.4856 37.0194L40.0462 24.1285L43.4781 27.8117L27.9923 42.3767Z" fill="white"/>
</svg>
